<?xml version="1.0" standalone="no"?><!DOCTYPE svg PUBLIC "-//W3C//DTD SVG 1.1//EN" "http://www.w3.org/Graphics/SVG/1.1/DTD/svg11.dtd"><svg t="1513680144328" class="icon" style="" viewBox="0 0 1024 1024" version="1.1" xmlns="http://www.w3.org/2000/svg" p-id="1955" xmlns:xlink="http://www.w3.org/1999/xlink" width="200" height="200"><defs><style type="text/css"></style></defs><path d="M533.2 993.4h-42.6c-61.8 0-112-50.2-112-112V142.6c0-61.8 50.2-112 112-112h42.6c61.8 0 112 50.2 112 112v738.8c0 61.8-50.2 112-112 112zM490.6 94.6c-26.4 0-48 21.6-48 48v738.8c0 26.4 21.6 48 48 48h42.6c26.4 0 48-21.6 48-48V142.6c0-26.4-21.6-48-48-48h-42.6zM191.6 993.4H157c-61.8 0-112-50.2-112-112v-177.6c0-61.8 50.2-112 112-112h34.6c61.8 0 112 50.2 112 112v177.6c0 61.8-50.2 112-112 112zM157 655.8c-26.4 0-48 21.6-48 48v177.6c0 26.4 21.6 48 48 48h34.6c26.4 0 48-21.6 48-48v-177.6c0-26.4-21.6-48-48-48H157zM867 993.4h-34.6c-61.8 0-112-50.2-112-112V353c0-61.8 50.2-112 112-112h34.6c61.8 0 112 50.2 112 112v528.6c0 61.6-50.2 111.8-112 111.8z m-34.6-688.4c-26.4 0-48 21.6-48 48v528.6c0 26.4 21.6 48 48 48h34.6c26.4 0 48-21.6 48-48V353c0-26.4-21.6-48-48-48h-34.6z" p-id="1956" fill="#ffffff"></path></svg>