<?xml version="1.0" standalone="no"?><!DOCTYPE svg PUBLIC "-//W3C//DTD SVG 1.1//EN" "http://www.w3.org/Graphics/SVG/1.1/DTD/svg11.dtd"><svg t="1515744016306" class="icon" style="" viewBox="0 0 1024 1024" version="1.1" xmlns="http://www.w3.org/2000/svg" p-id="4489" xmlns:xlink="http://www.w3.org/1999/xlink" width="200" height="200"><defs><style type="text/css"></style></defs><path d="M137.152 243.456 137.152 243.456l0 537.024c0 29.952 23.872 54.08 53.248 54.08l643.264 0c29.248 0 53.248-24.192 53.248-54.08L886.912 243.456c0-29.952-23.872-54.08-53.248-54.08L190.4 189.376C161.088 189.376 137.152 213.568 137.152 243.456L137.152 243.456 137.152 243.456M83.584 243.456c0-59.584 47.936-107.84 106.752-107.84l643.264 0c59.008 0 106.752 48.256 106.752 107.84l0 537.024c0 59.584-47.872 107.84-106.752 107.84L190.4 888.32c-58.944 0-106.752-48.256-106.752-107.84L83.648 243.456 83.584 243.456 83.584 243.456M83.584 243.456 83.584 243.456z" p-id="4490"></path><path d="M297.792 565.696c29.568 0 53.568-24.064 53.568-53.76s-24-53.76-53.568-53.76-53.568 24.064-53.568 53.76S268.224 565.696 297.792 565.696L297.792 565.696M512 565.696c29.504 0 53.504-24.064 53.504-53.76S541.504 458.176 512 458.176c-29.632 0-53.632 24.064-53.632 53.76S482.368 565.696 512 565.696L512 565.696M726.272 565.696c29.504 0 53.504-24.064 53.504-53.76s-24-53.76-53.504-53.76c-29.632 0-53.632 24.064-53.632 53.76S696.64 565.696 726.272 565.696L726.272 565.696M726.272 565.696 726.272 565.696z" p-id="4491"></path></svg>