<?xml version="1.0" standalone="no"?><!DOCTYPE svg PUBLIC "-//W3C//DTD SVG 1.1//EN" "http://www.w3.org/Graphics/SVG/1.1/DTD/svg11.dtd"><svg class="icon" width="200px" height="200.00px" viewBox="0 0 1024 1024" version="1.1" xmlns="http://www.w3.org/2000/svg"><path fill="#ffffff" d="M512 85.333333C276.266667 85.333333 85.333333 276.266667 85.333333 512s190.933333 426.666667 426.666667 426.666667 426.666667-190.933333 426.666667-426.666667S747.733333 85.333333 512 85.333333z m0 768c-188.16 0-341.333333-153.173333-341.333333-341.333333S323.84 170.666667 512 170.666667s341.333333 153.173333 341.333333 341.333333-153.173333 341.333333-341.333333 341.333333z m-81.92-389.76c2.346667-13.866667 6.613333-26.24 12.8-37.12s14.72-19.626667 25.173333-26.24c10.026667-6.186667 22.613333-9.6 38.186667-9.813333 10.24 0.213333 19.626667 1.92 27.733333 5.546667 8.746667 3.84 16 8.96 22.186667 15.36s10.88 14.08 14.293333 22.613333 5.333333 17.706667 5.76 27.306667h76.373334c-0.64-20.053333-4.693333-38.4-11.733334-55.04s-17.28-30.933333-30.08-43.093334-28.16-21.333333-46.08-27.946666-37.76-10.026667-59.52-10.026667c-27.733333 0-51.84 4.693333-72.32 14.293333s-37.546667 22.613333-51.2 39.253334-23.893333 35.84-30.506666 57.813333-9.813333 45.226667-9.813334 69.76v11.733333c0 24.746667 3.413333 48 10.026667 69.973334s16.853333 41.173333 30.506667 57.6 30.72 29.44 51.413333 39.04 44.8 14.293333 72.533333 14.293333c20.053333 0 38.826667-3.2 56.32-9.813333s32.853333-15.573333 46.08-27.093334 23.893333-24.746667 31.573334-40.106666 12.16-31.573333 12.8-49.066667h-76.373334a60.757333 60.757333 0 0 1-21.76 44.16c-6.4 5.333333-13.866667 9.6-22.4 12.586667-8.106667 2.773333-16.64 4.266667-25.813333 4.266666-15.36-0.426667-27.946667-3.626667-38.186667-10.026666-10.666667-6.826667-19.2-15.573333-25.386666-26.453334s-10.453333-23.253333-12.8-37.333333-3.2-27.733333-3.2-42.026667v-11.733333c0-14.506667 1.066667-28.8 3.413333-42.666667z"  /></svg>