<?xml version="1.0" standalone="no"?><!DOCTYPE svg PUBLIC "-//W3C//DTD SVG 1.1//EN" "http://www.w3.org/Graphics/SVG/1.1/DTD/svg11.dtd"><svg t="1513680150770" class="icon" style="" viewBox="0 0 1024 1024" version="1.1" xmlns="http://www.w3.org/2000/svg" p-id="2100" xmlns:xlink="http://www.w3.org/1999/xlink" width="200" height="200"><defs><style type="text/css"></style></defs><path d="M379.441427 481.70809c14.887059 71.692832 69.124334 124.920104 133.939525 124.920104 64.758909 0 118.941949-53.116755 133.896546-124.694977 13.447267-2.025123 23.89113-15.532765 23.89113-32.092929 0-15.484669-9.118682-28.392654-21.295002-31.655977-9.780761-79.404468-67.072605-140.42831-136.492674-140.42831-69.614497 0-127.053698 61.384046-136.572492 141.140531-11.18269 4.064572-19.368116 16.298198-19.368117 30.943756-0.001023 15.790638 9.468652 28.927843 22.001084 31.867802zM616.565009 629.569696l-86.432535 126.19105v-57.357336h-35.609009l-0.147356 56.71163-63.667042-125.546368S346.578971 614.273315 222.296387 728.996173v131.927705h575.524802V736.641293s-50.848085-103.248525-181.25618-107.071597z" p-id="2101" fill="#ffffff"></path><path d="M467.039507 653.788284l20.394493 31.866778h47.160089l20.395516-31.866778-19.120476-31.868825h-48.435129z" p-id="2102" fill="#ffffff"></path><path d="M209.852984 345.542874c13.386892 64.439638 60.990073 112.825648 118.609375 115.904776-2.469238-33.998325-5.904477-152.698774 127.251195-201.720257-17.164938-60.276828-64.97892-103.684454-121.41221-103.684454-64.681138 0-118.045533 57.036018-126.895085 131.137713-10.389628 3.777023-17.993816 15.144932-17.993817 28.747741 0 14.674211 8.797363 26.883277 20.440542 29.614481zM374.976742 563.515281l-25.109888 36.659944V546.878368h-33.089629l-0.13917 52.696176-59.156308-116.64872s-78.159104-14.2127-193.636138 92.376921v122.576733s143.747915-0.599657 151.581324 0c57.539484-84.473927 188.907441-108.107183 188.90744-108.107184s-17.161868-12.857842-29.357631-26.257013z" p-id="2103" fill="#ffffff"></path><path d="M291.242665 505.430374l18.951631 29.603225h43.814902c-18.73469-29.607318-22.799262-59.213613-22.799262-59.213613h-21.016663l-18.950608 29.610388z" p-id="2104" fill="#ffffff"></path><path d="M813.782719 345.542874c-13.385868 64.439638-60.995189 112.825648-118.606305 115.904776 2.461051-33.998325 5.89629-152.698774-127.258358-201.720257 17.163915-60.276828 64.98199-103.684454 121.41528-103.684454 64.680115 0 118.046556 57.036018 126.896108 131.137713 10.388605 3.777023 17.993816 15.144932 17.993817 28.747741 0 14.674211-8.79941 26.883277-20.440542 29.614481zM648.657938 563.515281l25.109887 36.659944V546.878368h33.08656l0.147356 52.696176 59.148121-116.64872s78.161151-14.2127 193.639209 92.376921v122.576733s-143.748938-0.599657-151.582347 0c-57.537438-84.473927-188.909487-108.107183-188.909488-108.107184s17.164938-12.857842 29.360702-26.257013z" p-id="2105" fill="#ffffff"></path><path d="M732.393038 505.430374l-18.948561 29.603225h-43.823088c18.742876-29.607318 22.802332-59.213613 22.802332-59.213613h21.020756l18.948561 29.610388z" p-id="2106" fill="#ffffff"></path></svg>