<?xml version="1.0" standalone="no"?><!DOCTYPE svg PUBLIC "-//W3C//DTD SVG 1.1//EN" "http://www.w3.org/Graphics/SVG/1.1/DTD/svg11.dtd"><svg t="1513680156885" class="icon" style="" viewBox="0 0 1024 1024" version="1.1" xmlns="http://www.w3.org/2000/svg" p-id="2250" xmlns:xlink="http://www.w3.org/1999/xlink" width="200" height="200"><defs><style type="text/css"></style></defs><path d="M990.4 364.8 539.2 48c-3.2-3.2-8-6.4-11.2-8-12.8-8-32-3.2-41.6 11.2L38.4 366.4c-14.4 9.6-16 30.4-4.8 46.4 11.2 16 32 20.8 44.8 11.2l30.4-22.4 0 520c0 19.2 16 35.2 35.2 35.2 19.2 0 35.2-16 35.2-35.2L179.2 352 515.2 116.8l339.2 238.4 0 564.8c0 19.2 16 35.2 35.2 35.2 19.2 0 35.2-16 35.2-35.2L924.8 406.4l24 16c14.4 9.6 33.6 4.8 44.8-11.2C1004.8 395.2 1003.2 374.4 990.4 364.8L990.4 364.8 990.4 364.8zM352 844.8l-57.6 0c-22.4 0-27.2 4.8-27.2 27.2l0 59.2c0 22.4 4.8 27.2 27.2 27.2L352 958.4c22.4 0 27.2-4.8 27.2-27.2l0-59.2C377.6 849.6 372.8 844.8 352 844.8L352 844.8 352 844.8zM352 651.2l-57.6 0c-22.4 0-27.2 4.8-27.2 27.2L267.2 736c0 22.4 4.8 27.2 27.2 27.2L352 763.2c22.4 0 27.2-4.8 27.2-27.2l0-59.2C377.6 656 372.8 651.2 352 651.2L352 651.2 352 651.2zM544 844.8l-57.6 0c-22.4 0-27.2 4.8-27.2 27.2l0 59.2c0 22.4 4.8 27.2 27.2 27.2L544 958.4c22.4 0 27.2-4.8 27.2-27.2l0-59.2C569.6 849.6 564.8 844.8 544 844.8L544 844.8 544 844.8zM736 844.8l-57.6 0c-22.4 0-27.2 4.8-27.2 27.2l0 59.2c0 22.4 4.8 27.2 27.2 27.2L736 958.4c22.4 0 27.2-4.8 27.2-27.2l0-59.2C761.6 849.6 756.8 844.8 736 844.8L736 844.8 736 844.8zM544 651.2l-57.6 0c-22.4 0-27.2 4.8-27.2 27.2L459.2 736c0 22.4 4.8 27.2 27.2 27.2L544 763.2c22.4 0 27.2-4.8 27.2-27.2l0-59.2C569.6 656 564.8 651.2 544 651.2L544 651.2 544 651.2zM352 457.6l-57.6 0c-22.4 0-27.2 4.8-27.2 27.2l0 59.2c0 22.4 4.8 27.2 27.2 27.2L352 571.2c22.4 0 27.2-4.8 27.2-27.2l0-59.2C377.6 460.8 372.8 457.6 352 457.6L352 457.6 352 457.6zM534.4 582.4" p-id="2251" fill="#ffffff"></path></svg>