<?xml version="1.0" standalone="no"?><!DOCTYPE svg PUBLIC "-//W3C//DTD SVG 1.1//EN" "http://www.w3.org/Graphics/SVG/1.1/DTD/svg11.dtd"><svg t="1515740022872" class="icon" style="" viewBox="0 0 1024 1024" version="1.1" xmlns="http://www.w3.org/2000/svg" p-id="1851" xmlns:xlink="http://www.w3.org/1999/xlink" width="200" height="200"><defs><style type="text/css"></style></defs><path d="M647.754944 472.513448c76.714682-43.008235 128.641992-125.615074 128.641992-220.477964 0-139.197322-111.788257-252.035484-249.671663-252.035484-137.889546 0-249.671663 112.838162-249.671663 252.035484 0 94.861868 51.925263 177.470753 128.639946 220.477964-161.455099 51.758465-278.442739 204.295514-278.442739 384.414564 0 222.753782 798.947889 222.753782 798.947889 0 0-180.120074-116.987639-332.657122-278.443762-384.414564zM351.953984 252.036507c0-97.434441 78.246561-176.429034 174.771289-176.429034s174.77129 78.993569 174.77129 176.429034c0 97.439558-78.246561 176.428011-174.77129 176.428011s-174.77129-78.988453-174.771289-176.428011z m174.771289 696.329414c-185.50365 0-324.573059-51.71344-324.573059-91.437909 0-180.959179 145.31358-327.646026 324.573059-327.646026 179.254363 0 324.573059 146.686848 324.57306 327.646026 0 39.725492-139.069409 91.437909-324.57306 91.437909z" p-id="1852" fill="#bbbbbb"></path></svg>