<?xml version="1.0" standalone="no"?><!DOCTYPE svg PUBLIC "-//W3C//DTD SVG 1.1//EN" "http://www.w3.org/Graphics/SVG/1.1/DTD/svg11.dtd"><svg t="1516346641140" class="icon" style="" viewBox="0 0 1024 1024" version="1.1" xmlns="http://www.w3.org/2000/svg" p-id="1824" xmlns:xlink="http://www.w3.org/1999/xlink" width="200" height="200"><defs><style type="text/css"></style></defs><path d="M297.020951 505.83571C278.290963 487.119642 247.900107 487.119642 229.17418 505.83571 210.444191 524.555836 210.444191 554.886257 229.17418 573.602325L426.561015 770.701359C435.931428 780.075625 448.216719 784.762758 460.50201 784.762758 472.750731 784.762758 485.048211 780.075625 494.407789 770.717591L945.963343 319.780186C964.671661 301.058705 964.671661 270.717463 945.963343 252.023038 927.217101 233.301559 896.841143 233.301559 878.094899 252.023038L460.50201 669.111631 297.020951 505.83571 297.020951 505.83571Z" p-id="1825" fill="#34B33D"></path><path d="M1020.136973 458.79664C1018.068657 438.760329 1000.095831 424.175428 980.047915 426.257248 959.978327 428.324186 945.386327 446.242157 947.465481 466.294701 949.025862 481.317875 949.804698 496.656233 949.804698 511.895842 949.804698 753.296064 753.153355 949.687631 511.43382 949.687631 269.70345 949.687631 73.058878 753.296064 73.058878 511.895842 73.058878 270.484798 269.70345 74.098642 511.43382 74.098642 597.666539 74.098642 681.111703 99.076396 752.730752 146.337311 769.571217 157.444396 792.227893 152.799197 803.349673 135.995857 814.455196 119.183049 809.830942 96.55089 792.994539 85.443805 709.407153 30.289839 612.026921 1.137627 511.43382 1.137627 229.428826 1.137627 0 230.268787 0 511.895842 0 793.522895 229.428826 1022.648644 511.43382 1022.648644 793.433397 1022.648644 1022.862223 793.522895 1022.862223 511.895842 1022.862223 494.157781 1021.952 476.297975 1020.136973 458.79664L1020.136973 458.79664Z" p-id="1826" fill="#34B33D"></path></svg>