<?xml version="1.0" standalone="no"?><!DOCTYPE svg PUBLIC "-//W3C//DTD SVG 1.1//EN" "http://www.w3.org/Graphics/SVG/1.1/DTD/svg11.dtd"><svg t="1513680134308" class="icon" style="" viewBox="0 0 1197 1024" version="1.1" xmlns="http://www.w3.org/2000/svg" p-id="1810" xmlns:xlink="http://www.w3.org/1999/xlink" width="233.7890625" height="200"><defs><style type="text/css"></style></defs><path d="M39.317157 1024c-21.631744 0-39.317157-17.685413-39.317157-39.463317V39.317157C0 17.685413 8.915786 0 30.547531 0c21.631744 0 30.547531 17.685413 30.54753 39.317157v923.441621h1096.787896c21.631744 0 39.317157 8.915786 39.317157 30.547531 0 21.631744-17.685413 30.547531-39.317157 30.547531H39.317157v0.14616z m127.451898-212.517271c-7.308022-1.315444-10.962033-1.753925-17.685412-7.892663-16.223808-14.469883-9.208107-37.709392 3.800171-55.102484L410.710819 403.841279c7.454182-10.08507 9.646589-14.908364 22.216386-14.908364 1.607765 0 7.161861 1.461604 13.739081 5.846417L690.315729 565.640879 1099.126463 239.995432c7.015701-5.554096 17.977733-14.762204 26.89352-14.762203 12.131316 0 13.885241 1.169283 21.047102 7.892663 6.431059 5.992578 8.038824 12.569797 6.869541 23.093349-1.169283 10.377391-12.131316 18.270054-20.462461 24.847273L702.154725 627.612903c-6.86954 5.554096-6.86954 8.769626-15.054525 4.677134-7.015701-3.50785-16.077648-10.08507-22.654867-14.469883L439.650585 466.397945 198.193548 795.697402c-7.454182 10.08507-19.000856 15.785327-31.424493 15.785327z" fill="#ffffff" p-id="1811"></path></svg>